<?xml version="1.0" encoding="UTF-8"?>
<svg width="175px" height="175px" viewBox="0 0 175 175" version="1.1" xmlns="http://www.w3.org/2000/svg" xmlns:xlink="http://www.w3.org/1999/xlink">
    <g stroke="none" stroke-width="1" fill="none" fill-rule="evenodd">
        <g fill="#195E96" fill-rule="nonzero">
            <path d="M87.5,175 C39.25,175 0,135.75 0,87.5 C0,39.25 39.25,0 87.5,0 C135.75,0 175,39.25 175,87.5 C175,92.0658521 174.64853,96.5511123 173.971222,100.930148 C167.491027,142.826911 131.184148,175 87.5,175 Z M87.5,12.5 C46.14375,12.5 12.5,46.14375 12.5,87.5 C12.5,128.85625 46.14375,162.5 87.5,162.5 C128.85625,162.5 162.5,128.85625 162.5,87.5 C162.5,46.14375 128.85625,12.5 87.5,12.5 Z"></path>
            <path d="M47.90625,117.055921 L47.90625,78.9746705 L35.25,78.9746705 C31.7982203,78.9746705 29,76.1764502 29,72.7246705 C29,69.2728909 31.7982203,66.4746705 35.25,66.4746705 L54.15625,66.4746705 C57.6080297,66.4746705 60.40625,69.2728909 60.40625,72.7246705 L60.40625,100.630921 L93.79375,63.1184205 C95.5176263,61.175577 98.263447,60.5014197 100.691085,61.424978 C103.118724,62.3485363 104.722132,64.6772912 104.71875,67.2746705 L104.71875,101.005921 L148.65,53.1371705 C150.143289,51.4286048 152.445317,50.6636313 154.664211,51.1386234 C156.883106,51.6136156 158.670238,53.2539436 159.333221,55.4240962 C159.996204,57.5942488 159.430872,59.9532566 157.85625,61.5871705 L103.06875,121.280921 C101.326799,123.180361 98.597539,123.815772 96.1957546,122.881054 C93.7939703,121.946335 92.2122236,119.63318 92.2125,117.055921 L92.2125,83.6996705 L58.825,121.212171 C57.6378597,122.543014 55.9396305,123.304603 54.15625,123.305921 C50.7044703,123.305921 47.90625,120.5077 47.90625,117.055921 Z"></path>
            <path d="M155.908779,121.446952 L133.806633,121.446952 C130.868826,121.446952 128.491774,119.000798 128.491774,115.977589 C128.491774,112.954379 130.868826,110.508226 133.806633,110.508226 L159.780647,110.508226 C160.554347,107.573423 161.145132,104.562776 161.539801,101.487631 C161.883283,98.8086061 164.283003,96.7794127 167.077623,97.0192609 C169.841314,97.1892077 172,99.4282911 172,102.127287 L172,155.387481 C172,158.216481 169.651693,160.505494 166.749412,160.505494 C163.847131,160.505494 161.498824,158.216481 161.498824,155.387481 L161.498824,133.35557 C146.808233,158.38624 119.13479,175 87.9898173,175 C45.394992,175 9.30715374,143.941664 4.04090852,102.757336 C3.68215947,99.9584826 5.72274407,97.3992874 8.59931925,97.0494069 C8.81986515,97.0194487 9.04021838,97.0094638 9.25573792,97.0094638 C11.8657631,97.0094638 14.1323072,98.9086516 14.4603238,101.497615 C19.0701485,137.56412 50.6817261,164.763784 87.9898173,164.763784 C118.013548,164.763784 144.359241,147.139121 155.908779,121.446952 Z"></path>
        </g>
    </g>
</svg>