<svg xmlns="http://www.w3.org/2000/svg" width="256" height="256" viewBox="0 0 256 256">
  <g fill="none">
    <circle cx="128" cy="128" r="128" fill="#195E96"/>
    <g fill="#FFF" transform="translate(38 38)">
      <path d="M90,180 C40.3714285,180 0,139.628572 0,90 C0,40.3714285 40.3714285,0 90,0 C139.628572,0 180,40.3714285 180,90 C180,94.696305 179.638488,99.3097153 178.941829,103.813867 C172.276485,146.90768 134.932267,180 90,180 Z M90,12.8571428 C47.4621428,12.8571428 12.8571428,47.4621428 12.8571428,90 C12.8571428,132.537857 47.4621428,167.142857 90,167.142857 C132.537857,167.142857 167.142857,132.537857 167.142857,90 C167.142857,47.4621428 132.537857,12.8571428 90,12.8571428 Z"/>
      <path d="M49.275,120.400376 L49.275,81.2310896 L36.2571428,81.2310896 C32.7067409,81.2310896 29.8285715,78.3529202 29.8285715,74.8025183 C29.8285715,71.2521163 32.7067409,68.3739468 36.2571428,68.3739468 L55.7035715,68.3739468 C59.2539734,68.3739468 62.1321428,71.2521163 62.1321428,74.8025183 L62.1321428,103.50609 L96.4735716,64.9218039 C98.2467009,62.9234506 101.070974,62.2300317 103.567973,63.1799774 C106.064973,64.1299231 107.714193,66.5252138 107.710715,69.1968039 L107.710715,103.891805 L152.897143,54.6553754 C154.433097,52.8979935 156.800898,52.1111636 159.083188,52.5997269 C161.36548,53.0882903 163.203673,54.7754848 163.885598,57.0076418 C164.567524,59.2397988 163.986039,61.6662068 162.366428,63.3468039 L106.013572,124.74609 C104.221851,126.6998 101.414612,127.353366 98.9442047,126.391942 C96.4737984,125.430516 94.8468581,123.051271 94.8471431,120.400376 L94.8471431,86.0910896 L60.5057143,124.675376 C59.2846557,126.044243 57.5379056,126.827591 55.7035715,126.828947 C52.1531694,126.828947 49.275,123.950777 49.275,120.400376 Z"/>
      <path d="M160.363315,124.916865 L137.62968,124.916865 C134.607936,124.916865 132.162967,122.400821 132.162967,119.291234 C132.162967,116.181647 134.607936,113.665604 137.62968,113.665604 L164.345809,113.665604 C165.141614,110.64695 165.749279,107.550284 166.155224,104.387277 C166.50852,101.631709 168.976803,99.5445384 171.85127,99.7912397 C174.693923,99.9660422 176.914285,102.269099 176.914285,105.045209 L176.914285,159.827123 C176.914285,162.736952 174.498884,165.091365 171.513681,165.091365 C168.528477,165.091365 166.113076,162.736952 166.113076,159.827123 L166.113076,137.165729 C151.002754,162.911561 122.538641,180 90.5038121,180 C46.6919917,180 9.57307237,148.054283 4.15636305,105.69326 C3.78736403,102.814439 5.88625104,100.182124 8.84501408,99.8222475 C9.0718613,99.7914328 9.29851033,99.7811625 9.52018753,99.7811625 C12.2047849,99.7811625 14.5360874,101.734613 14.8734759,104.397547 C19.6150099,141.494524 52.1297754,169.471321 90.5038121,169.471321 C121.385363,169.471321 148.483791,151.343096 160.363315,124.916865 Z"/>
    </g>
  </g>
</svg>
