<?xml version="1.0" encoding="UTF-8"?>
<svg width="539px" height="539px" viewBox="0 0 539 539" version="1.1" xmlns="http://www.w3.org/2000/svg" xmlns:xlink="http://www.w3.org/1999/xlink">
    <!-- Generator: Sketch 59.1 (86144) - https://sketch.com -->
    <title>Slice 1</title>
    <desc>Created with Sketch.</desc>
    <defs>
        <rect id="path-1" x="4" y="2" width="531" height="531" rx="8"></rect>
        <filter x="-1.3%" y="-0.9%" width="102.6%" height="102.6%" filterUnits="objectBoundingBox" id="filter-2">
            <feOffset dx="0" dy="2" in="SourceAlpha" result="shadowOffsetOuter1"></feOffset>
            <feGaussianBlur stdDeviation="2" in="shadowOffsetOuter1" result="shadowBlurOuter1"></feGaussianBlur>
            <feComposite in="shadowBlurOuter1" in2="SourceAlpha" operator="out" result="shadowBlurOuter1"></feComposite>
            <feColorMatrix values="0 0 0 0 0   0 0 0 0 0   0 0 0 0 0  0 0 0 0.5 0" type="matrix" in="shadowBlurOuter1"></feColorMatrix>
        </filter>
    </defs>
    <g id="页面-1" stroke="none" stroke-width="1" fill="none" fill-rule="evenodd">
        <g id="矩形">
            <use fill="black" fill-opacity="1" filter="url(#filter-2)" xlink:href="#path-1"></use>
            <rect stroke="#979797" stroke-width="1" stroke-linejoin="square" fill="#195E96" fill-rule="evenodd" x="4.5" y="2.5" width="530" height="530" rx="8"></rect>
        </g>
        <path d="M444.415929,309.777718 C454.138692,315.26105 459,324.034248 459,336.097578 C459,345.824531 455.436614,354.073245 448.309735,360.843967 C441.182855,367.61469 432.522175,371 422.327434,371 C414.728576,371 408.609942,368.718007 402.521416,365.618733 C395.488932,361.994966 390.020661,357.577859 387.566372,350.902499 C387.188789,349.901195 387,348.828385 387,347.684037 C387,345.013893 388.061936,342.796754 390.185841,341.032551 C392.168152,339.411392 394.433616,338.600825 396.982301,338.600825 C399.955767,338.600825 402.339224,339.792836 404.132743,342.176893 L406.318065,344.879969 C409.563995,347.666872 410.862456,348.399251 413.123894,349.437741 C416.290503,350.891901 419.516314,351.74359 422.327434,351.74359 C426.811232,351.74359 430.740396,351.117076 434.115044,348.399251 C437.489692,345.681426 439.176991,342.415317 439.176991,338.600825 C439.176991,326.846946 431.428785,320.140254 415.932144,318.480551 L415.460177,318.431802 C408.522089,317.764266 405.053097,314.83192 405.053097,309.634675 C405.053097,305.67714 407.743336,302.792475 413.123894,300.980591 C418.221264,299.836244 422.570004,299.400452 427.620177,298.208423 C430.829633,297.207119 433.961644,295.163529 435.566372,293.54237 C437.171099,291.921211 437.99705,289.990154 438.044248,287.74914 C438.233039,280.64465 434.184481,275.6277 421.548673,277.092458 C417.988668,277.505138 414.076122,278.426284 409.840539,281.093975 L408.83904,281.734637 C404.777295,284.313891 401.981417,285.603499 400.451327,285.603499 C397.761048,285.603499 395.471986,284.62605 393.584071,282.671124 C391.696156,280.716197 390.752212,278.499057 390.752212,276.019637 C390.752212,271.96674 394.716775,267.937744 402.646018,263.932528 C409.725699,260.356442 415.49102,259.696962 419.920354,259.300805 C434.115044,258.03124 439.247755,260.904767 445.761062,265.577519 C452.887941,270.727083 456.451327,278.069869 456.451327,287.606097 C456.451327,292.851023 455.448388,296.588684 453.442478,300.283973 C451.436568,303.979262 448.427749,307.632067 444.415929,309.777718 Z" id="3" stroke="#195E96" stroke-width="2" fill="#FFFFFF" fill-rule="nonzero"></path>
        <path d="M132.389025,349.055827 L132.389025,245.83011 L97.9881074,245.83011 C88.6058347,245.83011 81,238.245057 81,228.88842 C81,219.531784 88.6058347,211.946731 97.9881074,211.946731 L149.377132,211.946731 C158.759405,211.946731 166.36524,219.531784 166.36524,228.88842 L166.36524,304.533067 L257.11571,202.849043 C261.801373,197.582635 269.26478,195.755217 275.863336,198.258679 C282.461895,200.762141 286.820114,207.074628 286.810921,214.115267 L286.810921,305.549568 L406.220328,175.793165 C410.279233,171.161806 416.536369,169.088215 422.567538,170.375762 C428.598711,171.66331 433.456309,176.109698 435.258361,181.992266 C437.060413,187.874835 435.523786,194.269327 431.243811,198.698329 L282.326061,360.50841 C277.591269,365.657165 270.172875,367.379555 263.644591,364.845843 C257.116308,362.312128 252.816967,356.041927 252.817718,349.055827 L252.817718,258.638028 L162.067249,360.322051 C158.840486,363.929528 154.224534,365.993944 149.377132,365.997517 C139.99486,365.997517 132.389025,358.412462 132.389025,349.055827 Z" id="w" fill="#FFFFFF" fill-rule="nonzero"></path>
    </g>
</svg>