<?xml version="1.0" encoding="UTF-8"?>
<svg width="600px" height="600px" viewBox="0 0 600 600" version="1.1" xmlns="http://www.w3.org/2000/svg" xmlns:xlink="http://www.w3.org/1999/xlink">
    <!-- Generator: Sketch 59.1 (86144) - https://sketch.com -->
    <title>Slice 1</title>
    <desc>Created with Sketch.</desc>
    <g id="页面-1" stroke="none" stroke-width="1" fill="none" fill-rule="evenodd">
        <rect id="bg" fill="#FFFFFF" x="0" y="0" width="600" height="600" rx="8"></rect>
        <path d="M506.769912,352.018775 C518.923365,358.823981 525,369.712147 525,384.683601 C525,396.755444 520.545767,406.992688 511.637168,415.395638 C502.728569,423.798588 491.902719,428 479.159292,428 C469.660719,428 462.012427,425.167884 454.40177,421.321463 C445.611165,416.82411 438.775827,411.342164 435.707965,403.057565 C435.235986,401.814875 435,400.483442 435,399.063225 C435,395.749386 436.32742,392.997757 438.982301,390.808256 C441.460189,388.796282 444.292019,387.79031 447.477876,387.79031 C451.194709,387.79031 454.17403,389.26968 456.415929,392.228465 L459.147582,395.583176 C463.204994,399.041922 464.82807,399.950856 467.654867,401.239697 C471.613129,403.044413 475.645392,404.101419 479.159292,404.101419 C484.76404,404.101419 489.675495,403.323871 493.893805,399.950856 C498.112115,396.577841 500.221239,392.524366 500.221239,387.79031 C500.221239,373.202907 490.535982,364.879422 471.16518,362.819613 L470.575221,362.759112 C461.902612,361.930652 457.566372,358.291401 457.566372,351.841249 C457.566372,346.929665 460.92917,343.349589 467.654867,341.100912 C474.026581,339.680695 479.462505,339.139846 485.775221,337.660454 C489.787041,336.417764 493.702055,333.881522 495.707965,331.869548 C497.713874,329.857574 498.746312,327.460994 498.80531,324.679736 C499.041299,315.862556 493.980601,309.636164 478.185841,311.454032 C473.735835,311.966197 468.845153,313.109406 463.550674,316.420201 L462.2988,317.215308 C457.221619,320.416346 453.726771,322.016843 451.814159,322.016843 C448.451311,322.016843 445.589982,320.803759 443.230088,318.377555 C440.870195,315.951351 439.690265,313.199722 439.690265,310.122586 C439.690265,305.092651 444.645968,300.092379 454.557522,295.121619 C463.407124,290.683442 470.613775,289.864979 476.150442,289.37332 C493.893805,287.7977 500.309694,291.363952 508.451327,297.163171 C517.359927,303.554147 521.814159,312.667069 521.814159,324.50221 C521.814159,331.011537 520.560485,335.650242 518.053097,340.236359 C515.54571,344.822477 511.784686,349.355868 506.769912,352.018775 Z" id="3" stroke="#195E96" stroke-width="2" fill="#195E96" fill-rule="nonzero"></path>
        <path d="M118.838197,400.906234 L118.838197,272.40075 L76.1035363,272.40075 C64.448375,272.40075 55,262.958133 55,251.310074 C55,239.662017 64.448375,230.219399 76.1035363,230.219399 L139.941733,230.219399 C151.596895,230.219399 161.04527,239.662017 161.04527,251.310074 L161.04527,345.47994 L273.78036,218.893707 C279.601142,212.337566 288.872586,210.062617 297.069666,213.179172 C305.266749,216.295727 310.680761,224.154129 310.669342,232.919006 L310.669342,346.745381 L459.006098,185.211899 C464.048287,179.44633 471.821236,176.864921 479.313477,178.467786 C486.805722,180.070651 492.840091,185.605951 495.078697,192.929148 C497.317302,200.252345 495.408422,208.212836 490.091607,213.726492 L305.098008,415.16353 C299.216196,421.573206 290.00067,423.717405 281.890887,420.563192 C273.781104,417.408975 268.440232,409.603215 268.441166,400.906234 L268.441166,288.3453 L155.706075,414.931533 C151.697618,419.422473 145.963435,421.992461 139.941733,421.996909 C128.286572,421.996909 118.838197,412.55429 118.838197,400.906234 Z" id="w" fill="#195E96" fill-rule="nonzero"></path>
    </g>
</svg>