<?xml version="1.0" encoding="UTF-8"?>
<svg width="539px" height="539px" viewBox="0 0 539 539" version="1.1" xmlns="http://www.w3.org/2000/svg" xmlns:xlink="http://www.w3.org/1999/xlink">
    <!-- Generator: Sketch 59.1 (86144) - https://sketch.com -->
    <title>Slice 1</title>
    <desc>Created with Sketch.</desc>
    <g id="页面-1" stroke="none" stroke-width="1" fill="none" fill-rule="evenodd">
        <rect id="矩形" fill="#FFFFFF" x="3" y="-4" width="531" height="531" rx="67"></rect>
        <path d="M443.415929,234.777718 C453.138692,240.26105 458,249.034248 458,261.097578 C458,270.824531 454.436614,279.073245 447.309735,285.843967 C440.182855,292.61469 431.522175,296 421.327434,296 C413.728576,296 407.609942,293.718007 401.521416,290.618733 C394.488932,286.994966 389.020661,282.577859 386.566372,275.902499 C386.188789,274.901195 386,273.828385 386,272.684037 C386,270.013893 387.061936,267.796754 389.185841,266.032551 C391.168152,264.411392 393.433616,263.600825 395.982301,263.600825 C398.955767,263.600825 401.339224,264.792836 403.132743,267.176893 L405.318065,269.879969 C408.563995,272.666872 409.862456,273.399251 412.123894,274.437741 C415.290503,275.891901 418.516314,276.74359 421.327434,276.74359 C425.811232,276.74359 429.740396,276.117076 433.115044,273.399251 C436.489692,270.681426 438.176991,267.415317 438.176991,263.600825 C438.176991,251.846946 430.428785,245.140254 414.932144,243.480551 L414.460177,243.431802 C407.522089,242.764266 404.053097,239.83192 404.053097,234.634675 C404.053097,230.67714 406.743336,227.792475 412.123894,225.980591 C417.221264,224.836244 421.570004,224.400452 426.620177,223.208423 C429.829633,222.207119 432.961644,220.163529 434.566372,218.54237 C436.171099,216.921211 436.99705,214.990154 437.044248,212.74914 C437.233039,205.64465 433.184481,200.6277 420.548673,202.092458 C416.988668,202.505138 413.076122,203.426284 408.840539,206.093975 L407.83904,206.734637 C403.777295,209.313891 400.981417,210.603499 399.451327,210.603499 C396.761048,210.603499 394.471986,209.62605 392.584071,207.671124 C390.696156,205.716197 389.752212,203.499057 389.752212,201.019637 C389.752212,196.96674 393.716775,192.937744 401.646018,188.932528 C408.725699,185.356442 414.49102,184.696962 418.920354,184.300805 C433.115044,183.03124 438.247755,185.904767 444.761062,190.577519 C451.887941,195.727083 455.451327,203.069869 455.451327,212.606097 C455.451327,217.851023 454.448388,221.588684 452.442478,225.283973 C450.436568,228.979262 447.427749,232.632067 443.415929,234.777718 Z" id="3" stroke="#195E96" stroke-width="2" fill="#195E96" fill-rule="nonzero"></path>
        <path d="M131.389025,274.055827 L131.389025,170.83011 L96.9881074,170.83011 C87.6058347,170.83011 80,163.245057 80,153.88842 C80,144.531784 87.6058347,136.946731 96.9881074,136.946731 L148.377132,136.946731 C157.759405,136.946731 165.36524,144.531784 165.36524,153.88842 L165.36524,229.533067 L256.11571,127.849043 C260.801373,122.582635 268.26478,120.755217 274.863336,123.258679 C281.461895,125.762141 285.820114,132.074628 285.810921,139.115267 L285.810921,230.549568 L405.220328,100.793165 C409.279233,96.1618064 415.536369,94.0882154 421.567538,95.3757624 C427.598711,96.6633097 432.456309,101.109698 434.258361,106.992266 C436.060413,112.874835 434.523786,119.269327 430.243811,123.698329 L281.326061,285.50841 C276.591269,290.657165 269.172875,292.379555 262.644591,289.845843 C256.116308,287.312128 251.816967,281.041927 251.817718,274.055827 L251.817718,183.638028 L161.067249,285.322051 C157.840486,288.929528 153.224534,290.993944 148.377132,290.997517 C138.99486,290.997517 131.389025,283.412462 131.389025,274.055827 Z" id="w" fill="#195E96" fill-rule="nonzero"></path>
        <path d="M154.903087,328 L130.758989,328 L127.417466,344.86635 L111.415433,344.86635 L110.949592,357.280496 L125.010622,357.280496 L110,434 L134.494433,434 L149.2046,357.280496 L158.419672,357.280496 L156.164986,423.659748 L147.428589,433.85074 L170.355314,433.85074 C172.533954,433.85074 174.361172,433.174834 175.862297,431.818641 C177.355701,430.469425 178.126396,428.784589 178.18677,426.730678 L181,344.86635 L151.614485,344.86635 L154.903087,328 Z M71.3741572,352.432685 L71,365.798333 L76.0519658,365.798333 L73.7884819,434 L98.3146331,434 L100.429611,365.798333 L105.625843,365.798333 L106,352.432685 L100.947801,352.432685 L101.769446,328 L77.1694832,328 L76.4220911,352.432685 L71.3741572,352.432685 Z M122,367 L109.224298,367 L101,403 L113.775702,403 L122,367 Z M193.585194,367 L183,367 L184.414806,403 L195,403 L193.585194,367 Z M251.67926,328 L245,369.735546 L266.672554,369.735546 L269.478126,352.631758 L272.229727,352.631758 L269.516033,435 L295.530795,435 L296.266528,412.495016 L324.793251,412.495016 L325.184147,399.265783 L296.652703,399.265783 L297.248912,382.488371 L322.937055,382.488371 L323.342475,369.40917 L297.649687,369.40917 L298.245896,352.631758 L329.609103,352.631758 L330,339.402525 L271.670437,339.402525 L273.590606,328 L251.67926,328 Z M241,328 L205.540555,335.004503 L205,351.081036 L213.799427,349.428637 L210.748449,435 L237.25888,435 L240.446017,344.475918 L240.445989,344.476724 L241,328 Z M391.423625,421.092399 L391,434 L464.576375,434 L465,421.092399 L456.615606,421.092399 L459.628325,333 L400.33871,333 L397.149214,421.092399 L391.423625,421.092399 Z M343.227293,362.976881 L342.827239,376.644827 L353.868412,376.644827 L342.399875,397.338029 L342,411 L385.706211,411 L386.095191,397.710345 L367.920242,397.710345 L387.024169,363.355173 L368.896073,363.355173 L388,329 L361.09218,329 L343.227293,362.976881 Z M385.475446,430.219028 L386,417 L342.387238,419.780517 L342,433 L385.475446,430.219028 Z M435.478419,417 L417,417 L417.521581,399 L436,399 L435.478419,417 Z M436.470626,388 L418,388 L418.529374,374 L437,374 L436.470626,388 Z M419,364 L419.525571,348 L438,348 L437.474429,364 L419,364 Z" id="协作组" stroke="#FFFFFF" stroke-width="2" fill="#333333" fill-rule="nonzero"></path>
    </g>
</svg>